<svg width="58" height="58" viewBox="0 0 58 58" fill="none" xmlns="http://www.w3.org/2000/svg">
<path d="M48.0312 9.96875H43.2073L40.8538 4.08628C40.0816 2.15416 38.2374 0.90625 36.1576 0.90625C34.8054 0.90625 33.5349 1.43278 32.5806 2.38797C31.7822 3.18547 30.7219 3.625 29.5936 3.625H28.4055C27.2781 3.625 26.2178 3.18547 25.4194 2.38797C24.4642 1.43188 23.1937 0.90625 21.8424 0.90625C19.7626 0.90625 17.9184 2.15416 17.1453 4.08628L14.7927 9.96875H9.96875C8.46981 9.96875 7.25 11.1886 7.25 12.6875C7.25 14.1864 8.46981 15.4062 9.96875 15.4062H16.3125V17.3103C14.2472 17.7317 12.6875 19.5614 12.6875 21.75C12.6875 23.9522 14.268 25.7882 16.3542 26.1943C16.5798 29.7023 18.2292 32.8244 20.7395 34.9858L14.4465 36.9215C11.7686 37.7453 9.96875 40.1831 9.96875 42.9852V56.1875C9.96875 56.6887 10.3747 57.0938 10.875 57.0938H47.125C47.6253 57.0938 48.0312 56.6887 48.0312 56.1875V42.9852C48.0312 40.1831 46.2314 37.7462 43.5535 36.9215L37.2605 34.9858C39.7708 32.8244 41.4211 29.7032 41.6458 26.1943C43.732 25.7882 45.3125 23.9522 45.3125 21.75C45.3125 19.5623 43.7528 17.7317 41.6875 17.3103V15.4062H48.0312C49.5302 15.4062 50.75 14.1864 50.75 12.6875C50.75 11.1886 49.5302 9.96875 48.0312 9.96875ZM18.8282 4.75872C19.3249 3.51988 20.5075 2.71875 21.8424 2.71875C22.7097 2.71875 23.5244 3.05587 24.1371 3.66941C25.2789 4.81037 26.7942 5.4375 28.4064 5.4375H29.5945C31.2058 5.4375 32.722 4.81037 33.8629 3.66941C34.4756 3.05587 35.2903 2.71875 36.1576 2.71875C37.4925 2.71875 38.6751 3.51988 39.1708 4.75872L41.2552 9.96875H16.7448L18.8282 4.75872ZM14.5 21.75C14.5 20.5701 15.2603 19.5732 16.3125 19.198V24.3011C15.2603 23.9268 14.5 22.9299 14.5 21.75ZM36.2989 36.5862L36.9958 40.0708L34.2653 40.6163L35.883 36.4575L36.2989 36.5862ZM21.7011 36.5862L22.1179 36.4584L23.7356 40.6172L21.0051 40.0717L21.7011 36.5862ZM24.5983 42.8393L26.593 47.9687L23.0314 44.4062L24.5983 42.8393ZM33.4017 42.8393L34.9686 44.4062L31.407 47.9678L33.4017 42.8393ZM29 49.1559L24.3364 37.1626C25.7819 37.7372 27.3524 38.0625 29 38.0625C30.6476 38.0625 32.2181 37.7372 33.6636 37.1626L29 49.1559ZM11.7812 42.9852C11.7812 40.9833 13.0663 39.2424 14.9794 38.6543L19.7309 37.1925L19.0485 40.6036C18.9506 41.0948 19.2687 41.5715 19.759 41.6703L22.63 42.2448L21.1084 43.7664C20.754 44.1208 20.754 44.6935 21.1084 45.0479L28.0938 52.0314V55.2812H18.125V45.3125H16.3125V55.2812H11.7812V42.9852ZM46.2188 42.9852V55.2812H41.6875V45.3125H39.875V55.2812H29.9062V52.0314L36.8907 45.047C37.2451 44.6926 37.2451 44.1199 36.8907 43.7655L35.3691 42.2439L38.2401 41.6694C38.7313 41.5715 39.0494 41.0939 38.9506 40.6027L38.2682 37.1916L43.0197 38.6534C44.9337 39.2424 46.2188 40.9833 46.2188 42.9852ZM43.5 21.75C43.5 22.9299 42.7397 23.9268 41.6875 24.302V19.1989C42.7397 19.5732 43.5 20.5701 43.5 21.75ZM39.875 25.375C39.875 31.3717 34.9967 36.25 29 36.25C23.0033 36.25 18.125 31.3717 18.125 25.375V15.4062H39.875V25.375ZM48.0312 13.5938H9.96875C9.46941 13.5938 9.0625 13.1877 9.0625 12.6875C9.0625 12.1873 9.46941 11.7812 9.96875 11.7812H15.4062H42.5938H48.0312C48.5306 11.7812 48.9375 12.1873 48.9375 12.6875C48.9375 13.1877 48.5306 13.5938 48.0312 13.5938Z" fill="#00CAD6"/>
<path d="M25.6768 24.1063C25.4765 23.6486 25.375 23.161 25.375 22.6562C25.375 20.6571 27.0008 19.0312 29 19.0312C30.9992 19.0312 32.625 20.6571 32.625 22.6562C32.625 24.6554 30.9992 26.2812 29 26.2812C28.4998 26.2812 28.0938 26.6863 28.0938 27.1875V30.8125H29.9062V28.0185C32.4746 27.5853 34.4375 25.346 34.4375 22.6562C34.4375 19.6575 31.9988 17.2188 29 17.2188C26.0012 17.2188 23.5625 19.6575 23.5625 22.6562C23.5625 23.4121 23.7148 24.1443 24.0156 24.8312L25.6768 24.1063Z" fill="#00CAD6"/>
<path d="M28.0938 32.625H29.9062V34.4375H28.0938V32.625Z" fill="#00CAD6"/>
<path d="M32.625 51.6562H38.0625V53.4688H32.625V51.6562Z" fill="#00CAD6"/>
</svg>
