<svg width="58" height="58" viewBox="0 0 58 58" fill="none" xmlns="http://www.w3.org/2000/svg">
<path d="M48.0312 9.96875H43.2073L40.8538 4.08628C40.0816 2.15416 38.2374 0.90625 36.1576 0.90625C34.8054 0.90625 33.5349 1.43278 32.5806 2.38797C31.7822 3.18547 30.7219 3.625 29.5936 3.625H28.4055C27.2781 3.625 26.2178 3.18547 25.4194 2.38797C24.4642 1.43188 23.1937 0.90625 21.8424 0.90625C19.7626 0.90625 17.9184 2.15416 17.1453 4.08628L14.7927 9.96875H9.96875C8.46981 9.96875 7.25 11.1886 7.25 12.6875C7.25 14.1864 8.46981 15.4062 9.96875 15.4062H16.3125V17.3103C14.2472 17.7317 12.6875 19.5614 12.6875 21.75C12.6875 23.9522 14.268 25.7882 16.3542 26.1943C16.5798 29.7023 18.2292 32.8244 20.7395 34.9858L14.4465 36.9215C11.7686 37.7453 9.96875 40.1831 9.96875 42.9852V56.1875C9.96875 56.6887 10.3747 57.0938 10.875 57.0938H47.125C47.6253 57.0938 48.0312 56.6887 48.0312 56.1875V42.9852C48.0312 40.1831 46.2314 37.7462 43.5535 36.9215L37.2605 34.9858C39.7708 32.8244 41.4211 29.7032 41.6458 26.1943C43.732 25.7882 45.3125 23.9522 45.3125 21.75C45.3125 19.5623 43.7528 17.7317 41.6875 17.3103V15.4062H48.0312C49.5302 15.4062 50.75 14.1864 50.75 12.6875C50.75 11.1886 49.5302 9.96875 48.0312 9.96875ZM18.8282 4.75872C19.3249 3.51988 20.5075 2.71875 21.8424 2.71875C22.7097 2.71875 23.5244 3.05587 24.1371 3.66941C25.2789 4.81037 26.7942 5.4375 28.4064 5.4375H29.5945C31.2058 5.4375 32.722 4.81037 33.8629 3.66941C34.4756 3.05587 35.2903 2.71875 36.1576 2.71875C37.4925 2.71875 38.6751 3.51988 39.1708 4.75872L41.2552 9.96875H16.7448L18.8282 4.75872ZM14.5 21.75C14.5 20.5701 15.2603 19.5732 16.3125 19.198V24.3011C15.2603 23.9268 14.5 22.9299 14.5 21.75ZM36.2989 36.5862L36.9958 40.0708L34.2653 40.6163L35.883 36.4575L36.2989 36.5862ZM21.7011 36.5862L22.1179 36.4584L23.7356 40.6172L21.0051 40.0717L21.7011 36.5862ZM24.5983 42.8393L26.593 47.9687L23.0314 44.4062L24.5983 42.8393ZM33.4017 42.8393L34.9686 44.4062L31.407 47.9678L33.4017 42.8393ZM29 49.1559L24.3364 37.1626C25.7819 37.7372 27.3524 38.0625 29 38.0625C30.6476 38.0625 32.2181 37.7372 33.6636 37.1626L29 49.1559ZM11.7812 42.9852C11.7812 40.9833 13.0663 39.2424 14.9794 38.6543L19.7309 37.1925L19.0485 40.6036C18.9506 41.0948 19.2687 41.5715 19.759 41.6703L22.63 42.2448L21.1084 43.7664C20.754 44.1208 20.754 44.6935 21.1084 45.0479L28.0938 52.0314V55.2812H18.125V45.3125H16.3125V55.2812H11.7812V42.9852ZM46.2188 42.9852V55.2812H41.6875V45.3125H39.875V55.2812H29.9062V52.0314L36.8907 45.047C37.2451 44.6926 37.2451 44.1199 36.8907 43.7655L35.3691 42.2439L38.2401 41.6694C38.7313 41.5715 39.0494 41.0939 38.9506 40.6027L38.2682 37.1916L43.0197 38.6534C44.9337 39.2424 46.2188 40.9833 46.2188 42.9852ZM43.5 21.75C43.5 22.9299 42.7397 23.9268 41.6875 24.302V19.1989C42.7397 19.5732 43.5 20.5701 43.5 21.75ZM39.875 25.375C39.875 31.3717 34.9967 36.25 29 36.25C23.0033 36.25 18.125 31.3717 18.125 25.375V15.4062H39.875V25.375ZM48.0312 13.5938H9.96875C9.46941 13.5938 9.0625 13.1877 9.0625 12.6875C9.0625 12.1873 9.46941 11.7812 9.96875 11.7812H15.4062H42.5938H48.0312C48.5306 11.7812 48.9375 12.1873 48.9375 12.6875C48.9375 13.1877 48.5306 13.5938 48.0312 13.5938Z" fill="#00CAD6"/>
<path d="M32.625 51.6562H38.0625V53.4688H32.625V51.6562Z" fill="#00CAD6"/>
<path d="M25.9969 29.2298C26.7642 30.3094 27.8588 30.9286 29.0001 30.9286C30.1415 30.9286 31.2361 30.3094 32.0033 29.2298C32.1755 28.9876 32.5165 28.9266 32.7652 29.096C33.0133 29.2649 33.0745 29.5989 32.9019 29.8417C31.927 31.2133 30.5048 32 29 32C27.4952 32 26.073 31.2133 25.0981 29.8417C24.9255 29.5989 24.9867 29.2649 25.2348 29.096C25.4832 28.927 25.8243 28.9871 25.9969 29.2298Z" fill="#00CAD6"/>
<path d="M21.6863 21.8217C21.5443 22.038 21.2971 22.0606 21.1342 21.872C20.9713 21.6834 20.9544 21.3551 21.0963 21.1388C21.5712 20.4151 22.2573 20 22.9787 20C23.7002 20 24.3863 20.415 24.8612 21.1388C25.0032 21.3551 24.9861 21.6834 24.8232 21.872C24.6602 22.0605 24.4132 22.038 24.2712 21.8216C23.945 21.3244 23.4739 21.0393 22.9787 21.0393C22.4836 21.0394 22.0125 21.3245 21.6863 21.8217ZM35.0212 20.0001C35.7426 20.0001 36.4287 20.4151 36.9037 21.1388C37.0456 21.3552 37.0287 21.6834 36.8658 21.872C36.7028 22.0607 36.4558 22.0381 36.3137 21.8217C35.9875 21.3246 35.5164 21.0395 35.0212 21.0395C34.5261 21.0395 34.0549 21.3246 33.7287 21.8217C33.5866 22.0381 33.3395 22.0606 33.1766 21.872C33.0137 21.6835 32.9968 21.3552 33.1387 21.1388C33.6137 20.4151 34.2998 20.0001 35.0212 20.0001Z" fill="#00CAD6"/>
</svg>
