<svg width="9" height="10" viewBox="0 0 9 10" fill="none" xmlns="http://www.w3.org/2000/svg">
<path d="M3.83594 1.55859C3.64062 1.75391 3.66016 2.04688 3.83594 2.24219L6.19922 4.46875H0.59375C0.320312 4.46875 0.125 4.68359 0.125 4.9375V5.5625C0.125 5.83594 0.320312 6.03125 0.59375 6.03125H6.19922L3.83594 8.27734C3.66016 8.47266 3.66016 8.76562 3.83594 8.96094L4.26562 9.39062C4.46094 9.56641 4.75391 9.56641 4.92969 9.39062L8.73828 5.58203C8.91406 5.40625 8.91406 5.11328 8.73828 4.91797L4.92969 1.12891C4.75391 0.953125 4.46094 0.953125 4.26562 1.12891L3.83594 1.55859Z" fill="#303E59"/>
</svg>
