<svg width="43" height="43" viewBox="0 0 43 43" fill="none" xmlns="http://www.w3.org/2000/svg">
<path d="M31.8394 21.1182H34.8388C35.5169 21.1182 36.0686 20.5665 36.0686 19.8884V16.889C36.0686 16.2109 35.5169 15.6592 34.8388 15.6592H31.8394C31.1613 15.6592 30.6096 16.2109 30.6096 16.889V19.8884C30.6096 20.5665 31.1613 21.1182 31.8394 21.1182ZM31.8694 16.919H34.8088V19.8584H31.8694V16.919ZM31.8394 29.0967H34.8388C35.5169 29.0967 36.0686 28.545 36.0686 27.8669V24.8675C36.0686 24.1894 35.5169 23.6377 34.8388 23.6377H31.8394C31.1613 23.6377 30.6096 24.1894 30.6096 24.8675V27.8669C30.6096 28.545 31.1613 29.0967 31.8394 29.0967ZM31.8694 24.8975H34.8088V27.837H31.8694V24.8975ZM23.2801 21.1182H26.2795C26.9576 21.1182 27.5093 20.5665 27.5093 19.8884V16.889C27.5093 16.2109 26.9576 15.6592 26.2795 15.6592H23.2801C22.602 15.6592 22.0503 16.2109 22.0503 16.889V19.8884C22.0503 20.5665 22.602 21.1182 23.2801 21.1182ZM23.31 16.919H26.2495V19.8584H23.31V16.919ZM9.16076 31.2422H6.16134C5.48325 31.2422 4.93156 31.7939 4.93156 32.472V35.4714C4.93156 36.1495 5.48325 36.7012 6.16134 36.7012H9.16076C9.83885 36.7012 10.3905 36.1495 10.3905 35.4714V32.472C10.3905 31.7939 9.83885 31.2422 9.16076 31.2422ZM9.13078 35.4414H6.19133V32.502H9.13078V35.4414ZM9.16076 15.6592H6.16134C5.48325 15.6592 4.93156 16.2109 4.93156 16.889V19.8884C4.93156 20.5665 5.48325 21.1182 6.16134 21.1182H9.16076C9.83885 21.1182 10.3905 20.5665 10.3905 19.8884V16.889C10.3905 16.2108 9.83885 15.6592 9.16076 15.6592ZM9.13078 19.8584H6.19133V16.919H9.13078V19.8584ZM23.2801 28.9097H26.2795C26.9576 28.9097 27.5093 28.358 27.5093 27.6799V24.6805C27.5093 24.0024 26.9576 23.4507 26.2795 23.4507H23.2801C22.602 23.4507 22.0503 24.0024 22.0503 24.6805V27.6799C22.0503 28.358 22.602 28.9097 23.2801 28.9097ZM23.31 24.7105H26.2495V27.6499H23.31V24.7105ZM36.6942 2.87848H34.0012V1.91543C34.0012 0.859244 33.1419 0 32.0857 0H31.7965C30.7404 0 29.8811 0.859244 29.8811 1.91543V2.87848H11.119V1.91543C11.119 0.859244 10.2598 0 9.20359 0H8.91435C7.85816 0 6.99892 0.859244 6.99892 1.91543V2.87848H4.30596C2.56706 2.87848 1.15234 4.2932 1.15234 6.03209V39.8506C1.15234 41.5872 2.56513 43 4.30176 43H36.6986C38.4352 43 39.848 41.5872 39.848 39.8506V6.03209C39.8479 4.2932 38.4332 2.87848 36.6942 2.87848ZM31.1409 1.91543C31.1409 1.55388 31.435 1.25977 31.7966 1.25977H32.0858C32.4474 1.25977 32.7415 1.55388 32.7415 1.91543V2.87848H31.1409V1.91543ZM8.25877 1.91543C8.25877 1.55388 8.55288 1.25977 8.91444 1.25977H9.20368C9.56523 1.25977 9.85934 1.55388 9.85934 1.91543V2.87848H8.25885V1.91543H8.25877ZM38.5881 39.8506C38.5881 40.8926 37.7405 41.7402 36.6985 41.7402H4.30168C3.25968 41.7402 2.41203 40.8926 2.41203 39.8506V39.8466C2.93978 40.2443 3.59579 40.4805 4.30596 40.4805H29.8442C30.6866 40.4805 31.4785 40.1524 32.0741 39.5567L38.5881 33.0427V39.8506ZM31.4314 38.4179C31.4808 38.2141 31.5077 38.0015 31.5077 37.7827V33.5781C31.5077 32.7853 32.1528 32.1402 32.9457 32.1402H37.1502C37.3689 32.1402 37.5815 32.1134 37.7853 32.064L31.4314 38.4179ZM38.5881 11.8799H11.7489C11.401 11.8799 11.119 12.1619 11.119 12.5098C11.119 12.8577 11.401 13.1397 11.7489 13.1397H38.5881V29.4426C38.5881 30.2355 37.9431 30.8806 37.1502 30.8806H32.9457C31.4581 30.8806 30.2479 32.0908 30.2479 33.5782V37.7828C30.2479 38.5757 29.6028 39.2208 28.81 39.2208H4.30596C3.2617 39.2208 2.41211 38.3712 2.41211 37.3269V13.1397H9.22938C9.57724 13.1397 9.85926 12.8577 9.85926 12.5098C9.85926 12.1619 9.57724 11.8799 9.22938 11.8799H2.41203V6.03209C2.41203 4.98783 3.26161 4.13825 4.30587 4.13825H6.99892V5.99027C6.99892 7.04646 7.85816 7.9057 8.91435 7.9057C9.26222 7.9057 9.54424 7.62368 9.54424 7.27582C9.54424 6.92796 9.26222 6.64594 8.91435 6.64594C8.5528 6.64594 8.25869 6.35182 8.25869 5.99027V4.13825H29.8811V5.99027C29.8811 7.04646 30.7404 7.9057 31.7966 7.9057C32.1444 7.9057 32.4265 7.62368 32.4265 7.27582C32.4265 6.92796 32.1444 6.64594 31.7966 6.64594C31.435 6.64594 31.1409 6.35182 31.1409 5.99027V4.13825H36.6943C37.7386 4.13825 38.5881 4.98783 38.5881 6.03209V11.8799ZM9.16076 23.4507H6.16134C5.48325 23.4507 4.93156 24.0024 4.93156 24.6805V27.6799C4.93156 28.358 5.48325 28.9097 6.16134 28.9097H9.16076C9.83885 28.9097 10.3905 28.358 10.3905 27.6799V24.6805C10.3905 24.0023 9.83885 23.4507 9.16076 23.4507ZM9.13078 27.6499H6.19133V24.7105H9.13078V27.6499ZM14.7207 21.1182H17.7201C18.3982 21.1182 18.9499 20.5665 18.9499 19.8884V16.889C18.9499 16.2109 18.3982 15.6592 17.7201 15.6592H14.7207C14.0426 15.6592 13.4909 16.2109 13.4909 16.889V19.8884C13.4909 20.5665 14.0426 21.1182 14.7207 21.1182ZM14.7507 16.919H17.6901V19.8584H14.7507V16.919ZM23.3093 35.4414C23.2937 35.1074 23.0179 34.8415 22.6801 34.8415C22.3322 34.8415 22.0502 35.1235 22.0502 35.4714C22.0502 36.1495 22.6019 36.7012 23.28 36.7012H26.2794C26.9575 36.7012 27.5092 36.1495 27.5092 35.4714V32.472C27.5092 31.7939 26.9575 31.2422 26.2794 31.2422H23.28C22.6019 31.2422 22.0502 31.7939 22.0502 32.472V33.337C22.0502 33.6849 22.3322 33.9669 22.6801 33.9669C23.0279 33.9669 23.31 33.6849 23.31 33.337V32.502H26.2494V35.4414H23.3093ZM14.7207 28.9097H17.7201C18.3982 28.9097 18.9499 28.358 18.9499 27.6799V24.6805C18.9499 24.0024 18.3982 23.4507 17.7201 23.4507H14.7207C14.0426 23.4507 13.4909 24.0024 13.4909 24.6805V27.6799C13.4909 28.358 14.0426 28.9097 14.7207 28.9097ZM14.7507 24.7105H17.6901V27.6499H14.7507V24.7105ZM14.7207 36.7012H17.7201C18.3982 36.7012 18.9499 36.1495 18.9499 35.4714V32.472C18.9499 31.7939 18.3982 31.2422 17.7201 31.2422H14.7207C14.0426 31.2422 13.4909 31.7939 13.4909 32.472V35.4714C13.4909 36.1495 14.0426 36.7012 14.7207 36.7012ZM14.7507 32.502H17.6901V35.4414H14.7507V32.502Z" fill="#303E59"/>
</svg>
