<svg width="40" height="40" viewBox="0 0 40 40" fill="none" xmlns="http://www.w3.org/2000/svg">
<path d="M30.4316 35.6703C30.316 35.6704 30.2033 35.6334 30.1103 35.5647C30.0172 35.4961 29.9486 35.3994 29.9146 35.2889C29.8805 35.1784 29.8828 35.0599 29.9211 34.9508C29.9594 34.8417 30.0316 34.7477 30.1273 34.6827C30.5105 34.4222 30.9121 34.1205 31.3543 33.7595C31.4654 33.6689 31.6079 33.6261 31.7506 33.6406C31.8932 33.6551 32.0242 33.7256 32.1148 33.8368C32.2054 33.9479 32.2482 34.0904 32.2337 34.233C32.2192 34.3757 32.1486 34.5067 32.0375 34.5973C31.5705 34.9757 31.1446 35.3 30.7348 35.5768C30.6454 35.6376 30.5398 35.6701 30.4316 35.6703Z" fill="#00CAD6"/>
<path d="M20.0006 38.9189C15.9663 38.9143 12.0393 37.6187 8.79423 35.2216C5.5492 32.8245 3.15649 29.4518 1.9662 25.597C0.775907 21.7423 0.850524 17.6077 2.17913 13.7984C3.50773 9.98903 6.02058 6.70487 9.35 4.42645C12.6794 2.14802 16.6506 0.994919 20.6825 1.13587C24.7144 1.27682 28.5954 2.70443 31.7576 5.20979C34.9198 7.71516 37.1971 11.1668 38.2565 15.0596C39.3158 18.9524 39.1015 23.0821 37.645 26.8443C37.6202 26.9117 37.5822 26.9735 37.5333 27.0261C37.4844 27.0787 37.4255 27.121 37.36 27.1505C37.2946 27.1801 37.2239 27.1963 37.1521 27.1982C37.0803 27.2001 37.0089 27.1877 36.9419 27.1617C36.875 27.1357 36.8139 27.0966 36.7622 27.0468C36.7105 26.9969 36.6693 26.9372 36.641 26.8712C36.6126 26.8052 36.5977 26.7343 36.5971 26.6625C36.5965 26.5907 36.6102 26.5194 36.6374 26.453C38.1236 22.6244 38.2434 18.4002 36.9766 14.4935C35.7098 10.5868 33.134 7.23682 29.6838 5.0089C26.2337 2.78098 22.1205 1.8116 18.0386 2.26437C13.9567 2.71714 10.156 4.56433 7.27792 7.49418C4.39988 10.424 2.62078 14.2571 2.24089 18.3464C1.86101 22.4358 2.9036 26.531 5.19271 29.9409C7.48182 33.3507 10.8772 35.8664 14.8059 37.0633C18.7346 38.2602 22.9559 38.0651 26.7574 36.5108C26.8901 36.4563 27.039 36.4568 27.1713 36.5121C27.3037 36.5674 27.4086 36.673 27.4631 36.8057C27.5176 36.9384 27.5171 37.0873 27.4618 37.2196C27.4065 37.3519 27.3009 37.4569 27.1682 37.5114C24.8942 38.4451 22.4589 38.9233 20.0006 38.9189Z" fill="#00CAD6"/>
<path d="M34.3504 32.0217C34.2485 32.0216 34.1486 31.9926 34.0624 31.9381C33.9762 31.8837 33.9072 31.806 33.8633 31.714C33.8193 31.6219 33.8023 31.5194 33.8142 31.4181C33.8261 31.3169 33.8664 31.221 33.9304 31.1417C34.245 30.7519 34.551 30.3363 34.865 29.8709C34.9041 29.8107 34.9548 29.759 35.0141 29.7186C35.0735 29.6782 35.1402 29.6501 35.2105 29.6358C35.2808 29.6215 35.3533 29.6214 35.4236 29.6354C35.494 29.6494 35.5609 29.6773 35.6204 29.7174C35.6798 29.7575 35.7307 29.809 35.7701 29.869C35.8095 29.929 35.8365 29.9962 35.8496 30.0668C35.8627 30.1373 35.8616 30.2097 35.8465 30.2799C35.8313 30.35 35.8023 30.4164 35.7612 30.4752C35.4299 30.9665 35.1061 31.4071 34.7715 31.8211C34.7207 31.8839 34.6566 31.9345 34.5837 31.9692C34.5108 32.0039 34.4311 32.0218 34.3504 32.0217Z" fill="#00CAD6"/>
<path d="M19.9993 34.3919C17.1529 34.3919 14.3703 33.5478 12.0036 31.9664C9.63688 30.385 7.79223 28.1373 6.70295 25.5076C5.61366 22.8778 5.32865 19.9841 5.88396 17.1923C6.43928 14.4005 7.80997 11.8362 9.82272 9.82342C11.8355 7.81068 14.3998 6.43998 17.1916 5.88467C19.9834 5.32935 22.8771 5.61436 25.5069 6.70365C28.1366 7.79294 30.3843 9.63758 31.9657 12.0043C33.5471 14.371 34.3912 17.1536 34.3912 20C34.3869 23.8157 32.8693 27.4738 30.1712 30.1719C27.4731 32.87 23.815 34.3876 19.9993 34.3919ZM19.9993 6.68921C17.3667 6.68921 14.7932 7.46988 12.6042 8.93249C10.4153 10.3951 8.7092 12.474 7.70173 14.9062C6.69427 17.3384 6.43067 20.0148 6.94427 22.5968C7.45787 25.1789 8.72561 27.5506 10.5872 29.4122C12.4487 31.2737 14.8205 32.5415 17.4025 33.0551C19.9846 33.5687 22.6609 33.3051 25.0931 32.2976C27.5254 31.2901 29.6042 29.5841 31.0669 27.3951C32.5295 25.2062 33.3101 22.6327 33.3101 20C33.3061 16.471 31.9025 13.0877 29.4071 10.5923C26.9117 8.09689 23.5283 6.69322 19.9993 6.68921Z" fill="#00CAD6"/>
<path d="M17.291 24.9249C17.1476 24.9248 17.0101 24.8679 16.9088 24.7665L13.5575 21.4151C13.5074 21.3647 13.4678 21.305 13.4408 21.2392C13.4139 21.1735 13.4001 21.1032 13.4004 21.0321C13.4006 20.9611 13.4149 20.8908 13.4423 20.8253C13.4697 20.7598 13.5098 20.7003 13.5602 20.6503C13.6106 20.6002 13.6703 20.5606 13.736 20.5336C13.8017 20.5067 13.8721 20.4929 13.9431 20.4932C14.0142 20.4935 14.0844 20.5077 14.15 20.5351C14.2155 20.5625 14.275 20.6026 14.325 20.653L17.291 23.6216L25.6764 15.2335C25.7267 15.1832 25.7864 15.1434 25.8521 15.1162C25.9179 15.089 25.9883 15.0751 26.0594 15.0751C26.1306 15.0752 26.201 15.0892 26.2667 15.1165C26.3324 15.1438 26.392 15.1837 26.4423 15.234C26.4926 15.2844 26.5324 15.3441 26.5596 15.4098C26.5868 15.4756 26.6007 15.546 26.6007 15.6171C26.6006 15.6882 26.5866 15.7587 26.5593 15.8244C26.532 15.89 26.4921 15.9497 26.4418 16L17.6731 24.7665C17.5718 24.8679 17.4343 24.9248 17.291 24.9249Z" fill="#00CAD6"/>
</svg>
