<svg width="58" height="58" viewBox="0 0 58 58" fill="none" xmlns="http://www.w3.org/2000/svg">
<path d="M4.67733 51.432H29V49.5606H4.67733C3.12744 49.5606 1.87088 48.3041 1.87088 46.7542V5.59285C1.87088 4.0425 3.12744 2.78641 4.67733 2.78641H45.8386C47.3892 2.78641 48.6451 4.0425 48.6451 5.59285V27.1088H50.5164V5.59285C50.5134 3.0108 48.4209 0.918576 45.8386 0.915527H4.67733C2.09575 0.918576 0.00328266 3.0108 0 5.59285V46.7542C0.00328266 49.3362 2.09575 51.4284 4.67733 51.432Z" fill="#00CAD6"/>
<path d="M3.74219 4.65771H5.61284V6.52836H3.74219V4.65771Z" fill="#00CAD6"/>
<path d="M7.48438 4.65771H9.35574V6.52836H7.48438V4.65771Z" fill="#00CAD6"/>
<path d="M11.2266 4.65771H13.0977V6.52836H11.2266V4.65771Z" fill="#00CAD6"/>
<path d="M3.74219 8.39941H46.7742V10.2708H3.74219V8.39941Z" fill="#00CAD6"/>
<path d="M13.3718 12.4155L10.9956 14.7917C8.98712 13.462 6.29744 13.87 4.77312 15.7355C3.24902 17.6007 3.38572 20.3178 5.08896 22.0208C6.79195 23.7245 9.50929 23.8612 11.3748 22.3369C13.24 20.8128 13.6483 18.1227 12.3183 16.1146L14.6943 13.7384L13.3718 12.4155ZM8.41992 21.4961C6.87027 21.4961 5.61371 20.2398 5.61371 18.6899C5.61371 17.1397 6.87027 15.8837 8.41992 15.8837C8.83729 15.8851 9.24785 15.9807 9.62231 16.1639L7.75893 18.0275L9.08138 19.3504L10.9462 17.4879C11.1293 17.8622 11.2252 18.2727 11.2266 18.6899C11.2266 20.2398 9.97051 21.4961 8.41992 21.4961Z" fill="#00CAD6"/>
<path d="M15.9043 15.8833H31.8072V17.754H15.9043V15.8833Z" fill="#00CAD6"/>
<path d="M15.9043 19.6255H22.4525V21.4961H15.9043V19.6255Z" fill="#00CAD6"/>
<path d="M24.3223 19.6255H37.4187V21.4961H24.3223V19.6255Z" fill="#00CAD6"/>
<path d="M33.6777 15.8833H43.0326V17.754H33.6777V15.8833Z" fill="#00CAD6"/>
<path d="M13.3718 23.6411L10.9956 26.0173C8.98712 24.6876 6.29744 25.0956 4.77312 26.9611C3.24902 28.8266 3.38572 31.5434 5.08896 33.2469C6.79195 34.9501 9.50929 35.0868 11.3748 33.5625C13.24 32.0382 13.6483 29.349 12.3183 27.3402L14.6943 24.964L13.3718 23.6411ZM8.41992 32.7219C6.87027 32.7219 5.61371 31.4653 5.61371 29.9155C5.61371 28.3653 6.87027 27.1088 8.41992 27.1088C8.83729 27.1104 9.24785 27.2063 9.62231 27.3894L7.75893 29.2535L9.08138 30.576L10.9462 28.7133C11.1293 29.0878 11.2252 29.4983 11.2266 29.9155C11.2266 31.4653 9.97051 32.7219 8.41992 32.7219Z" fill="#00CAD6"/>
<path d="M15.9043 27.1089H31.8072V28.98H15.9043V27.1089Z" fill="#00CAD6"/>
<path d="M15.9043 30.8511H22.4525V32.722H15.9043V30.8511Z" fill="#00CAD6"/>
<path d="M24.3223 30.8511H31.8058V32.722H24.3223V30.8511Z" fill="#00CAD6"/>
<path d="M33.6777 27.1089H37.4195V28.98H33.6777V27.1089Z" fill="#00CAD6"/>
<path d="M13.3718 34.8667L10.9956 37.2429C8.98712 35.9132 6.29744 36.3212 4.77312 38.1866C3.24902 40.0521 3.38572 42.769 5.08896 44.4725C6.79195 46.1759 9.50929 46.3122 11.3748 44.7881C13.24 43.2637 13.6483 40.5743 12.3183 38.5656L14.6943 36.1896L13.3718 34.8667ZM8.41992 43.9475C6.87027 43.9475 5.61371 42.6909 5.61371 41.141C5.61371 39.5909 6.87027 38.3346 8.41992 38.3346C8.83729 38.336 9.24785 38.4317 9.62231 38.615L7.75893 40.4791L9.08138 41.8016L10.9462 39.9389C11.1293 40.3133 11.2252 40.7241 11.2266 41.141C11.2266 42.6909 9.97051 43.9475 8.41992 43.9475Z" fill="#00CAD6"/>
<path d="M15.9043 38.335H28.0654V40.2063H15.9043V38.335Z" fill="#00CAD6"/>
<path d="M15.9043 42.0767H22.4525V43.9475H15.9043V42.0767Z" fill="#00CAD6"/>
<path d="M24.3223 42.0767H28.064V43.9475H24.3223V42.0767Z" fill="#00CAD6"/>
<path d="M43.968 57.0449C51.7181 57.0449 57.9999 50.7619 57.9999 43.0124C57.9999 35.2623 51.7181 28.98 43.968 28.98C36.2179 28.98 29.9355 35.2623 29.9355 43.0124C29.9447 50.7584 36.2216 57.0355 43.968 57.0449ZM43.968 30.8511C50.6841 30.8511 56.1293 36.2959 56.1293 43.0124C56.1293 49.729 50.6841 55.1735 43.968 55.1735C37.2512 55.1735 31.8062 49.729 31.8062 43.0124C31.8142 36.2992 37.2542 30.8586 43.968 30.8511Z" fill="#00CAD6"/>
<path d="M38.2625 43.5297L36.5879 44.3658L38.459 48.1078C38.5931 48.377 38.8492 48.5653 39.1463 48.6133C39.1946 48.6208 39.2429 48.6248 39.2914 48.6255C39.5392 48.6255 39.7772 48.5268 39.9531 48.3514L51.1784 37.1256L49.856 35.8027L39.5475 46.1108L38.2625 43.5297Z" fill="#00CAD6"/>
</svg>
