<svg width="58" height="58" viewBox="0 0 58 58" fill="none" xmlns="http://www.w3.org/2000/svg">
<g clip-path="url(#clip0_1652_598)">
<path d="M53.4971 38.2741C53.3079 37.9727 53.113 37.6623 52.9127 37.3419C52.6638 36.9441 52.1396 36.8232 51.7418 37.0721C51.3439 37.3208 51.2232 37.8451 51.4719 38.243C51.6728 38.5641 51.8682 38.8753 52.0577 39.1774C53.2971 41.1522 54.2834 42.7247 54.9925 44.1756C53.2166 42.8634 51.1174 42.1208 50.0701 41.8057V28.3486C50.0701 26.9432 48.9267 25.7998 47.5213 25.7998H45.1041C44.8697 24.6296 44.6469 23.4642 44.4309 22.3312C43.0248 14.9529 41.8104 8.58072 38.1858 4.68701C37.8658 4.34354 37.3283 4.3244 36.985 4.64408C36.6415 4.96387 36.6222 5.50139 36.942 5.84486C39.6907 8.79742 40.961 13.5732 42.0957 19.2154C41.6463 18.4645 41.1394 17.6901 40.57 16.9112C37.9215 13.2876 33.9206 11.3723 29 11.3723C24.0794 11.3723 20.0785 13.2875 17.4298 16.9111C16.8604 17.69 16.3536 18.4644 15.9041 19.2154C17.8025 9.7747 20.0828 2.74707 29 2.74707C31.3251 2.74707 33.2368 3.20609 34.8445 4.15029C35.249 4.38772 35.7698 4.25258 36.0075 3.84794C36.2451 3.4433 36.1096 2.92266 35.7051 2.68499C33.8293 1.58345 31.6361 1.04785 29 1.04785C23.8383 1.04785 20.1593 3.19 17.7525 7.59664C15.6396 11.4653 14.6337 16.7433 13.5688 22.3314C13.3529 23.4643 13.1301 24.6297 12.8957 25.7999H10.4785C9.07304 25.7999 7.92969 26.9433 7.92969 28.3487V32.6508C6.64315 34.8637 5.50773 36.6733 4.50293 38.2741C1.69491 42.748 0 45.4486 0 49.3903C0 51.7158 1.12171 53.4367 3.24404 54.367C4.79055 55.0448 6.62922 55.2106 8.07299 55.2447C8.42133 56.2378 9.36779 56.9521 10.4785 56.9521H47.5215C48.6322 56.9521 49.5787 56.2378 49.927 55.2447C51.3708 55.2104 53.2094 55.0447 54.756 54.367C56.8783 53.4367 58 51.7157 58 49.3903C58 45.4487 56.3051 42.7482 53.4971 38.2741ZM43.2672 25.7998H38.9919L39.613 22.2933C40.1082 21.709 40.4683 20.9944 40.6868 20.1763C42.0648 22.5046 42.8696 24.6017 43.2672 25.7998ZM39.0921 17.7727C39.0934 17.7743 39.0946 17.776 39.0959 17.7776C39.1884 17.8983 39.2363 18.0308 39.2363 18.1739C39.2363 20.1024 38.5392 22.4013 35.2179 22.4013C32.5536 22.4013 31.3127 21.1607 31.3127 18.4971C31.3127 17.8622 32.8185 16.9437 35.5411 16.9437C37.4191 16.9438 38.6826 17.2467 39.0921 17.7727ZM36.5513 15.2739C36.233 15.2548 35.8972 15.2446 35.5412 15.2446C32.9063 15.2446 30.8721 16.0073 30.0331 17.205C29.7521 17.1312 29.4114 17.0886 29.0001 17.0886C28.5888 17.0886 28.248 17.1313 27.9671 17.205C27.1281 16.0073 25.094 15.2446 22.459 15.2446C22.1029 15.2446 21.7672 15.2547 21.4488 15.2739C23.4994 13.8111 26.0257 13.0716 29.0001 13.0716C31.9744 13.0715 34.5007 13.811 36.5513 15.2739ZM18.7637 18.1741C18.7637 18.0305 18.8117 17.8979 18.9047 17.7769C18.9056 17.7756 18.9066 17.7744 18.9075 17.7731C19.3167 17.247 20.5805 16.9438 22.4588 16.9438C25.1814 16.9438 26.6871 17.8623 26.6871 18.4972C26.6871 21.1608 25.4463 22.4014 22.782 22.4014C19.4608 22.4014 18.7637 20.1026 18.7637 18.1741ZM17.3132 20.1763C17.5317 20.9944 17.8918 21.709 18.387 22.2933L19.0081 25.7998H14.7328C15.1305 24.6015 15.9352 22.5043 17.3132 20.1763ZM1.69922 49.3903C1.69922 45.9377 3.20631 43.5365 5.94217 39.1774C6.55457 38.2017 7.21545 37.1485 7.92969 35.9739V41.8072C7.3003 41.9981 6.28518 42.3452 5.18953 42.8773C4.76744 43.0823 4.5914 43.5906 4.79644 44.0127C4.94337 44.3153 5.24617 44.4914 5.56132 44.4914C5.68581 44.4914 5.81235 44.4639 5.93186 44.4059C6.6743 44.0453 7.38299 43.7767 7.9298 43.5923V51.005C7.9298 51.5299 8.08941 52.0183 8.36254 52.4242C8.09712 52.7215 7.93377 53.1113 7.93048 53.5397C3.6301 53.3941 1.69922 52.0975 1.69922 49.3903ZM48.3711 54.4033C48.3711 54.8719 47.99 55.2529 47.5215 55.2529H10.4785C10.01 55.2529 9.62891 54.8719 9.62891 54.4033L9.62777 53.5537H27.2921C27.7613 53.5537 28.1417 53.1733 28.1417 52.7041C28.1417 52.2349 27.7613 51.8545 27.2921 51.8545H10.4785C10.01 51.8545 9.62891 51.4734 9.62891 51.0049V28.3486C9.62891 27.8801 10.01 27.499 10.4785 27.499H28.6834L25.0167 38.907C24.9337 39.1655 24.9791 39.448 25.139 39.6675C25.299 39.8869 25.5541 40.0166 25.8256 40.0166H30.2109L27.3422 48.9415C27.1986 49.3881 27.4444 49.8666 27.8911 50.0103C28.3375 50.1537 28.8163 49.9081 28.9599 49.4614L32.1851 39.427C32.2682 39.1685 32.2227 38.8859 32.0628 38.6665C31.9028 38.4471 31.6477 38.3174 31.3762 38.3174H26.991L30.6576 26.9094C30.7407 26.6509 30.6953 26.3684 30.5353 26.1489C30.3753 25.9295 30.1202 25.7998 29.8487 25.7998H20.7339L20.3581 23.6784C21.0751 23.9569 21.8897 24.1006 22.7821 24.1006C26.2781 24.1006 28.2545 22.2382 28.3798 18.8458C28.7107 18.768 29.2893 18.768 29.6202 18.8458C29.7456 22.2382 31.7219 24.1006 35.2179 24.1006C36.1103 24.1006 36.9249 23.9568 37.6419 23.6784L37.2661 25.7998H33.2474C32.7782 25.7998 32.3978 26.1802 32.3978 26.6494C32.3978 27.1186 32.7782 27.499 33.2474 27.499H47.5215C47.99 27.499 48.3711 27.8801 48.3711 28.3486V51.0049C48.3711 51.4734 47.99 51.8545 47.5215 51.8545H30.6905C30.2213 51.8545 29.8409 52.2349 29.8409 52.7041C29.8409 53.1733 30.2213 53.5537 30.6905 53.5537L47.5006 53.5527C47.5077 53.5529 47.5145 53.5537 47.5215 53.5537C47.5354 53.5537 47.5491 53.5529 47.5631 53.5527H48.3711V54.4033ZM50.0696 53.5396C50.0663 53.1113 49.903 52.7214 49.6376 52.4241C49.9107 52.0182 50.0703 51.5298 50.0703 51.0049V43.5916C52.0846 44.2691 56.3008 46.0825 56.3008 49.3902C56.3008 52.0975 54.3699 53.3941 50.0696 53.5396Z" fill="#00CAD6"/>
</g>
<defs>
<clipPath id="clip0_1652_598">
<rect width="58" height="58" fill="white"/>
</clipPath>
</defs>
</svg>
