<svg width="58" height="58" viewBox="0 0 58 58" fill="none" xmlns="http://www.w3.org/2000/svg">
<path d="M29.0003 0.61084C22.8953 0.61084 17.0553 2.44648 12.1112 5.91954C11.7273 6.18925 11.6348 6.71916 11.9045 7.10305C12.1743 7.48706 12.7041 7.57972 13.088 7.30989C17.7442 4.03892 23.2467 2.30987 29.0003 2.30987C43.927 2.30987 56.2999 14.1011 56.2999 28.9986C56.2999 35.9301 53.5945 42.4983 48.682 47.4933C48.3531 47.8278 48.3576 48.3658 48.6921 48.6947C49.0263 49.0232 49.5639 49.0197 49.8935 48.6848C55.1204 43.37 57.999 36.3785 57.999 28.9986C57.999 13.2644 44.9786 0.61084 29.0003 0.61084Z" fill="#00CAD6"/>
<path d="M29.7497 56.9385C35.8547 56.9385 41.6947 55.1028 46.6388 51.6298C47.0227 51.3601 47.1152 50.8302 46.8455 50.4463C46.5757 50.0623 46.0459 49.9696 45.662 50.2394C41.0058 53.5104 35.5033 55.2394 29.7497 55.2394C14.823 55.2394 2.45013 43.4482 2.45013 28.5507C2.45013 21.6192 5.15551 15.051 10.068 10.056C10.3969 9.72148 10.3924 9.18353 10.0579 8.85457C9.72372 8.52607 9.18611 8.52959 8.85648 8.86454C3.62956 14.1794 0.750987 21.1708 0.750987 28.5507C0.750985 44.2849 13.7714 56.9385 29.7497 56.9385Z" fill="#00CAD6"/>
<path d="M24.4953 37.3065C25.6462 38.7459 27.2881 39.5715 29.0001 39.5715C30.7122 39.5715 32.3541 38.7459 33.5049 37.3065C33.7633 36.9835 34.2747 36.9022 34.6478 37.128C35.02 37.3532 35.1118 37.7985 34.8529 38.1223C33.3905 39.9511 31.2572 41 29 41C26.7428 41 24.6096 39.9511 23.1471 38.1223C22.8882 37.7985 22.98 37.3532 23.3522 37.128C23.7248 36.9026 24.2364 36.9827 24.4953 37.3065Z" fill="#00CAD6"/>
<path d="M13.4583 29.7325C13.1566 30.0571 12.6313 30.0908 12.2852 29.8079C11.939 29.5251 11.903 29.0327 12.2046 28.7081C13.2139 27.6227 14.6718 27 16.2048 27C17.7379 27 19.1959 27.6226 20.205 28.7081C20.5068 29.0327 20.4705 29.525 20.1244 29.8079C19.7779 30.0907 19.253 30.057 18.9512 29.7324C18.258 28.9867 17.257 28.559 16.2047 28.559C15.1526 28.5591 14.1516 28.9868 13.4583 29.7325ZM41.7951 27.0001C43.3281 27.0001 44.786 27.6227 45.7953 28.7082C46.097 29.0328 46.0611 29.5251 45.7147 29.808C45.3685 30.091 44.8435 30.0572 44.5416 29.7326C43.8484 28.9869 42.8473 28.5592 41.7951 28.5592C40.7429 28.5592 39.7417 28.9869 39.0485 29.7326C38.7466 30.0572 38.2214 30.0909 37.8753 29.808C37.5291 29.5252 37.4932 29.0328 37.7947 28.7082C38.8041 27.6227 40.2621 27.0001 41.7951 27.0001Z" fill="#00CAD6"/>
<path d="M42.4178 20.6174C41.9609 20.5108 41.5042 20.7948 41.3975 21.2517C41.2909 21.7087 41.5748 22.1655 42.0318 22.2721C43.5176 22.6189 46.1671 24.4965 46.7125 25.0421C46.8784 25.2079 47.0959 25.2909 47.3133 25.2909C47.5307 25.2909 47.7482 25.208 47.9141 25.0421C48.2459 24.7103 48.2459 24.1723 47.9141 23.8407C47.2636 23.19 44.3633 21.0713 42.4178 20.6174ZM15.583 20.6174C13.6376 21.0713 10.7374 23.1899 10.0867 23.8405C9.75494 24.1723 9.75494 24.7103 10.0867 25.042C10.2527 25.2078 10.4702 25.2908 10.6875 25.2908C10.9049 25.2908 11.1224 25.2079 11.2884 25.042C11.8338 24.4964 14.4832 22.6187 15.9691 22.272C16.426 22.1654 16.71 21.7086 16.6034 21.2516C16.4967 20.7948 16.0399 20.5108 15.583 20.6174Z" fill="#00CAD6"/>
</svg>
