<svg width="50" height="50" viewBox="0 0 50 50" fill="none" xmlns="http://www.w3.org/2000/svg">
<path d="M34.8528 12.161C32.2167 9.54331 28.7256 8.10522 25.013 8.10522C24.9793 8.10522 24.9453 8.10542 24.9114 8.10562C20.8957 8.13394 17.077 9.90698 14.4347 12.97C14.0825 13.3784 14.1279 13.995 14.5363 14.3473C14.9448 14.6997 15.5614 14.654 15.9136 14.2458C18.188 11.6092 21.4727 10.0831 24.9252 10.0587C24.9545 10.0585 24.9835 10.0583 25.0127 10.0583C28.2061 10.0583 31.2092 11.2955 33.4768 13.547C35.7655 15.8195 37.0259 18.8472 37.0259 22.0724C37.0259 25.1524 35.8617 28.0813 33.7477 30.3194C31.5282 32.6692 30.2254 35.6434 30.0299 38.7698H28.1259V28.4184H28.7444C30.1625 28.4184 31.316 27.2648 31.316 25.8469V25.7166C31.316 24.2986 30.1624 23.1452 28.7444 23.1452C27.3263 23.1452 26.1729 24.2988 26.1729 25.7166V26.4654H23.8293V25.7166C23.8293 24.2986 22.6756 23.1452 21.2578 23.1452H21.0923C19.6743 23.1452 18.5209 24.2988 18.5209 25.7166V25.8469C18.5209 27.265 19.6745 28.4184 21.0923 28.4184H21.8762V38.7697H19.9955C19.806 35.6085 18.5292 32.6619 16.3521 30.3987C14.104 28.0612 12.9144 24.9849 13.0027 21.7367C13.0173 21.1975 12.5922 20.7486 12.053 20.7339C11.5115 20.7156 11.065 21.1444 11.0503 21.6836C10.9476 25.4591 12.3305 29.0349 14.9444 31.7526C16.958 33.8459 18.0669 36.6308 18.0669 39.5944V39.7462V42.4203C18.0669 44.509 19.6509 46.234 21.6807 46.4588V46.6796C21.6806 48.5105 23.1701 50 25.0008 50C26.8316 50 28.3211 48.5105 28.3211 46.6797V46.4618C30.3616 46.2471 31.957 44.5167 31.957 42.4204V39.7463V39.5948C31.957 36.6701 33.0971 33.8522 35.1672 31.6605C37.6252 29.0584 38.9788 25.6532 38.9788 22.0723C38.9789 18.3228 37.5135 14.803 34.8528 12.161ZM28.1259 25.7166C28.1259 25.3756 28.4034 25.0982 28.7444 25.0982C29.0854 25.0982 29.3629 25.3756 29.3629 25.7166V25.8469C29.3629 26.1879 29.0854 26.4654 28.7444 26.4654H28.1259V25.7166ZM23.8292 28.4184H26.1728V38.7697H23.8292V28.4184ZM21.0921 26.4654C20.7511 26.4654 20.4737 26.1879 20.4737 25.8469V25.7166C20.4737 25.3756 20.7511 25.0982 21.0921 25.0982H21.2576C21.5986 25.0982 21.876 25.3756 21.876 25.7166V26.4654H21.0921ZM26.3681 46.6797C26.3681 47.4336 25.7548 48.0469 25.0009 48.0469C24.247 48.0469 23.6337 47.4336 23.6337 46.6797V46.4844H26.3681V46.6797ZM30.0041 42.4204C30.0041 43.5844 29.0571 44.5314 27.893 44.5314H27.3447H22.6573H22.1309C20.9669 44.5314 20.0199 43.5844 20.0199 42.4204V40.7228H30.0041V42.4204Z" fill="#00CAD6"/>
<path d="M25 0C24.4607 0 24.0234 0.437305 24.0234 0.976562V4.62344C24.0234 5.1627 24.4606 5.6 25 5.6C25.5393 5.6 25.9766 5.1627 25.9766 4.62344V0.976562C25.9766 0.437305 25.5393 0 25 0Z" fill="#00CAD6"/>
<path d="M46.0961 21.0958H42.4492C41.91 21.0958 41.4727 21.5331 41.4727 22.0724C41.4727 22.6116 41.91 23.049 42.4492 23.049H46.0961C46.6354 23.049 47.0727 22.6116 47.0727 22.0724C47.0727 21.5331 46.6355 21.0958 46.0961 21.0958Z" fill="#00CAD6"/>
<path d="M7.55117 21.0958H3.9043C3.36504 21.0958 2.92773 21.5331 2.92773 22.0724C2.92773 22.6116 3.36504 23.049 3.9043 23.049H7.55117C8.09043 23.049 8.52773 22.6116 8.52773 22.0724C8.52773 21.5331 8.09053 21.0958 7.55117 21.0958Z" fill="#00CAD6"/>
<path d="M13.3512 9.0436L10.7726 6.46489C10.3913 6.08374 9.77312 6.08354 9.39148 6.46489C9.01013 6.84624 9.01013 7.4646 9.39148 7.84605L11.9701 10.4248C12.1609 10.6154 12.4108 10.7108 12.6607 10.7108C12.9106 10.7108 13.1605 10.6154 13.3512 10.4248C13.7326 10.0434 13.7326 9.42505 13.3512 9.0436Z" fill="#00CAD6"/>
<path d="M40.607 6.46477C40.2256 6.08352 39.6074 6.08352 39.226 6.46477L36.6473 9.04348C36.266 9.42483 36.266 10.0432 36.6473 10.4246C36.8381 10.6153 37.088 10.7107 37.3379 10.7107C37.5878 10.7107 37.8377 10.6153 38.0284 10.4246L40.607 7.84592C40.9884 7.46458 40.9884 6.84622 40.607 6.46477Z" fill="#00CAD6"/>
<path d="M34.1424 18.385C33.4107 16.5687 32.1663 15.023 30.544 13.9148C28.9002 12.7923 26.9789 12.2001 24.9824 12.2001C24.9588 12.2001 24.9348 12.2002 24.9112 12.2003C24.3718 12.2041 23.9376 12.6444 23.9414 13.1837C23.9452 13.7207 24.3818 14.1534 24.9179 14.1534C24.9201 14.1534 24.9226 14.1534 24.9248 14.1534C24.9443 14.1532 24.9633 14.1532 24.9826 14.1532C28.2343 14.1532 31.1147 16.0958 32.3309 19.1148C32.4842 19.4955 32.8502 19.7268 33.2369 19.7268C33.3584 19.7268 33.482 19.704 33.6015 19.6557C34.1018 19.4542 34.344 18.8851 34.1424 18.385Z" fill="#00CAD6"/>
<path d="M34.5673 21.3819C34.3857 21.2003 34.1338 21.0957 33.8769 21.0957C33.619 21.0957 33.3671 21.2003 33.1855 21.3819C33.0039 21.5635 32.9004 21.8154 32.9004 22.0723C32.9004 22.3291 33.0039 22.5811 33.1855 22.7627C33.3671 22.9443 33.619 23.0488 33.8769 23.0488C34.1338 23.0488 34.3857 22.9444 34.5673 22.7627C34.7489 22.5811 34.8524 22.3291 34.8524 22.0723C34.8524 21.8154 34.7489 21.5635 34.5673 21.3819Z" fill="#00CAD6"/>
<path d="M13.7274 16.3507C13.5459 16.1691 13.2939 16.0656 13.0371 16.0656C12.7803 16.0656 12.5283 16.169 12.3467 16.3507C12.165 16.5333 12.0605 16.7843 12.0605 17.0421C12.0605 17.299 12.1649 17.5499 12.3467 17.7325C12.5283 17.9141 12.7803 18.0187 13.0371 18.0187C13.2939 18.0187 13.5459 17.9142 13.7274 17.7325C13.9091 17.5499 14.0137 17.299 14.0137 17.0421C14.0137 16.7843 13.9092 16.5333 13.7274 16.3507Z" fill="#00CAD6"/>
</svg>
