<svg width="202" height="50" viewBox="0 0 202 50" fill="none" xmlns="http://www.w3.org/2000/svg">
<path d="M97.2025 15.4102C91.9598 15.4102 87.6953 19.6746 87.6953 24.9174C87.6953 30.1601 91.9598 34.4245 97.2025 34.4245C99.7682 34.4245 102.161 33.4229 103.939 31.604L104.683 30.9392L101.801 28.1011L101.077 28.8245C100.067 29.835 98.6552 30.4149 97.2025 30.4149C94.9619 30.4149 92.9644 29.0793 92.1707 26.9207L106.71 26.9881V24.9174C106.707 19.6746 102.445 15.4102 97.2025 15.4102ZM92.1092 22.8203C92.9644 20.7525 94.9648 19.4169 97.2025 19.4169C99.4519 19.4169 101.444 20.7525 102.214 22.9111L92.1092 22.8203Z" fill="#828A9A"/>
<path d="M122.342 15.3428L116.408 28.4057L110.638 15.3428H106.266L114.698 34.4245H118.236L126.806 15.3428H122.342Z" fill="#828A9A"/>
<path d="M157.501 15.4102C152.259 15.4102 147.994 19.6746 147.994 24.9174C147.994 30.1601 152.259 34.4245 157.501 34.4245C160.067 34.4245 162.46 33.4229 164.238 31.604L164.982 30.9392L162.1 28.1011L161.376 28.8245C160.366 29.835 158.954 30.4149 157.501 30.4149C155.261 30.4149 153.263 29.0793 152.469 26.9207L167.009 26.9881V24.9174C167.009 19.6746 162.744 15.4102 157.501 15.4102ZM152.408 22.8203C153.263 20.7525 155.264 19.4169 157.501 19.4169C159.754 19.4169 161.745 20.7525 162.513 22.9111L152.408 22.8203Z" fill="#828A9A"/>
<path d="M195.705 15.3423L195.772 10.0029H191.631V34.4241H195.705L195.772 19.4164L201.176 19.431V15.357L195.705 15.3423Z" fill="#828A9A"/>
<path d="M179.117 15.4101C177.318 15.4101 175.576 15.9432 173.968 16.8804V15.3428H169.826V34.4245L173.909 34.4919V34.4245H173.965V24.0709C174.249 21.4671 176.437 19.4257 179.114 19.4257C181.984 19.4257 184.321 21.76 184.321 24.6303L184.254 34.4245H188.34V24.6303C188.34 19.5487 184.201 15.4101 179.117 15.4101Z" fill="#828A9A"/>
<path d="M80.9052 17.0967C79.3118 15.9925 77.4491 15.4097 75.5101 15.4097C70.2674 15.4097 66 19.6741 66 24.9169C66 30.1596 70.2645 34.4241 75.5101 34.4241C77.4168 34.4241 79.2562 33.8559 80.9432 32.8395V34.3977V34.4211H85.0173V34.3977H85.0583L85.0847 10H80.9052V17.0967ZM75.5101 30.4173C72.4787 30.4173 70.0097 27.9512 70.0097 24.9169C70.0097 21.8825 72.4758 19.4164 75.5101 19.4164C78.5943 19.4164 81.0077 21.8327 81.0077 24.9169C81.0106 27.9512 78.5415 30.4173 75.5101 30.4173Z" fill="#828A9A"/>
<path d="M128.484 41.9282C128.484 45.0357 131.041 47.5927 134.149 47.5927H135.959L137.807 43.6591H134.149C133.206 43.6591 132.418 42.8713 132.418 41.9282C132.418 40.9851 133.206 40.1972 134.149 40.1972H139.459L141.307 36.2637H134.146C131.041 36.2607 128.484 38.7796 128.484 41.9282Z" fill="#828A9A"/>
<path d="M144.2 13.8896L141.236 16.8537C139.763 15.9164 138.026 15.357 136.155 15.357C130.9 15.357 126.627 19.6303 126.627 24.8847C126.627 30.1392 130.9 34.4124 136.155 34.4124C141.409 34.4124 145.682 30.1392 145.682 24.8847C145.682 23.0132 145.12 21.2792 144.186 19.806L147.15 16.842L144.2 13.8896ZM136.158 30.3998C133.112 30.3998 130.642 27.9308 130.642 24.8847C130.642 21.8387 133.112 19.3696 136.158 19.3696C139.204 19.3696 141.673 21.8387 141.673 24.8847C141.673 27.9308 139.204 30.3998 136.158 30.3998Z" fill="#828A9A"/>
<path d="M25.5919 49.9435C39.3255 49.9435 50.5139 38.7552 50.5139 24.922H38.1041C38.1041 31.84 32.4074 37.4342 25.5919 37.4342C18.6738 37.4342 13.0796 31.84 13.0796 24.922C13.0796 18.1064 18.6738 12.5122 25.5919 12.5122V0C11.7587 0 0.570312 11.1884 0.570312 24.922C0.570313 38.7552 11.7587 49.9435 25.5919 49.9435Z" fill="#828A9A"/>
<path d="M38.0249 0.00292969V5.06406C38.0249 11.9587 32.4395 17.5441 25.5449 17.5441C21.4444 17.5441 18.1699 20.8596 18.1699 24.919C18.1699 28.9785 21.4415 32.294 25.5449 32.294C29.6043 32.294 32.9198 28.9785 32.9198 24.919C32.9198 22.2918 33.7546 19.6968 35.2981 17.5675C36.8094 15.4792 38.9651 13.88 41.4078 13.0541C43.2911 12.4156 45.2154 12.5269 47.1894 12.5269H50.5489V0.00292969H38.0249Z" fill="#828A9A"/>
</svg>
