<svg width="136" height="94" viewBox="0 0 136 94" fill="none" xmlns="http://www.w3.org/2000/svg">
<path d="M91.5013 61.8173C86.2586 61.8173 81.9941 66.0817 81.9941 71.3245C81.9941 76.5672 86.2586 80.8316 91.5013 80.8316C94.067 80.8316 96.46 79.83 98.2378 78.0111L98.9817 77.3463L96.0997 74.5082L95.3763 75.2316C94.3658 76.2421 92.9541 76.822 91.5013 76.822C89.2607 76.822 87.2632 75.4864 86.4695 73.3278L101.009 73.3952V71.3245C101.009 66.0817 96.7441 61.8173 91.5013 61.8173ZM86.408 69.2274C87.2632 67.1596 89.2637 65.824 91.5013 65.824C93.7537 65.824 95.7453 67.1596 96.5127 69.3182L86.408 69.2274Z" fill="#303E59"/>
<path d="M129.707 61.7499L129.774 56.4105H125.633V80.8317H129.707L129.774 65.824L135.178 65.8386V61.7645L129.707 61.7499Z" fill="#303E59"/>
<path d="M113.117 61.8173C111.318 61.8173 109.576 62.3503 107.968 63.2876V61.7499H103.826V80.8317L107.909 80.899V80.8317H107.965V70.478C108.249 67.8742 110.437 65.8328 113.114 65.8328C115.984 65.8328 118.321 68.1671 118.321 71.0374L118.254 80.8317H122.34V71.0374C122.34 65.9558 118.201 61.8173 113.117 61.8173Z" fill="#303E59"/>
<path d="M31.2045 61.8173C25.9617 61.8173 21.6973 66.0817 21.6973 71.3245C21.6973 76.5672 25.9617 80.8316 31.2045 80.8316C33.7702 80.8316 36.1631 79.83 37.9409 78.0111L38.6849 77.3463L35.8028 74.5082L35.0794 75.2316C34.0689 76.2421 32.6572 76.822 31.2045 76.822C28.9639 76.822 26.9663 75.4864 26.1726 73.3278L40.7117 73.3952V71.3245C40.7087 66.0817 36.4472 61.8173 31.2045 61.8173ZM26.1111 69.2274C26.9664 67.1596 28.9668 65.824 31.2045 65.824C33.4539 65.824 35.4455 67.1596 36.2158 69.3182L26.1111 69.2274Z" fill="#00CAD6"/>
<path d="M56.3423 61.7499L50.4084 74.8128L44.6385 61.7499H40.2656L48.6979 80.8316H52.236L60.806 61.7499H56.3423Z" fill="#00CAD6"/>
<path d="M14.9052 63.5043C13.3118 62.4001 11.4491 61.8173 9.51013 61.8173C4.2674 61.8173 0 66.0817 0 71.3245C0 76.5672 4.26447 80.8317 9.51013 80.8317C11.4168 80.8317 13.2562 80.2634 14.9432 79.2471V80.8053V80.8287H19.0173V80.8053H19.0583L19.0847 56.4076H14.9052V63.5043ZM9.51013 76.8249C6.47872 76.8249 4.00966 74.3588 4.00966 71.3245C4.00966 68.2901 6.47579 65.824 9.51013 65.824C12.5943 65.824 15.0077 68.2403 15.0077 71.3245C15.0106 74.3588 12.5415 76.8249 9.51013 76.8249Z" fill="#00CAD6"/>
<path d="M62.4844 88.3355C62.4844 91.4431 65.0413 94 68.1489 94H69.9589L71.807 90.0665H68.1489C67.2058 90.0665 66.4179 89.2786 66.4179 88.3355C66.4179 87.3924 67.2058 86.6045 68.1489 86.6045H73.459L75.3071 82.671H68.1459C65.0413 82.6681 62.4844 85.187 62.4844 88.3355Z" fill="#303E59"/>
<path d="M78.2023 60.2972L75.2382 63.2612C73.765 62.324 72.0282 61.7646 70.1566 61.7646C64.9022 61.7646 60.6289 66.0378 60.6289 71.2923C60.6289 76.5467 64.9022 80.82 70.1566 80.82C75.411 80.82 79.6843 76.5467 79.6843 71.2923C79.6843 69.4207 79.122 67.6868 78.1876 66.2135L81.1517 63.2495L78.2023 60.2972ZM70.1595 76.8074C67.1135 76.8074 64.6444 74.3383 64.6444 71.2923C64.6444 68.2462 67.1135 65.7771 70.1595 65.7771C73.2056 65.7771 75.6746 68.2462 75.6746 71.2923C75.6746 74.3383 73.2056 76.8074 70.1595 76.8074Z" fill="#303E59"/>
<path d="M67.5919 49.9435C81.3255 49.9435 92.5139 38.7552 92.5139 24.922H80.1041C80.1041 31.84 74.4074 37.4342 67.5919 37.4342C60.6738 37.4342 55.0796 31.84 55.0796 24.922C55.0796 18.1064 60.6738 12.5122 67.5919 12.5122V0C53.7587 0 42.5703 11.1884 42.5703 24.922C42.5703 38.7552 53.7587 49.9435 67.5919 49.9435Z" fill="#303E59"/>
<path d="M80.0249 0.00292969V5.06406C80.0249 11.9587 74.4395 17.5441 67.5449 17.5441C63.4444 17.5441 60.1699 20.8596 60.1699 24.919C60.1699 28.9785 63.4415 32.294 67.5449 32.294C71.6043 32.294 74.9198 28.9785 74.9198 24.919C74.9198 22.2918 75.7546 19.6968 77.2981 17.5675C78.8094 15.4792 80.9651 13.88 83.4078 13.0541C85.2911 12.4156 87.2154 12.5269 89.1894 12.5269H92.5489V0.00292969H80.0249Z" fill="#00CAD6"/>
</svg>
