<svg width="58" height="58" viewBox="0 0 58 58" fill="none" xmlns="http://www.w3.org/2000/svg">
<path d="M53.9219 5.4375H4.07812C3.23718 5.43843 2.43094 5.77291 1.8363 6.36755C1.24166 6.96219 0.90718 7.76843 0.90625 8.60938V41.2344C0.90718 42.0753 1.24166 42.8816 1.8363 43.4762C2.43094 44.0708 3.23718 44.4053 4.07812 44.4062H22.3051L21.0964 48.0312H18.125C17.8846 48.0312 17.6541 48.1267 17.4842 48.2967C17.3142 48.4666 17.2188 48.6971 17.2188 48.9375V50.75H11.7812C11.5409 50.75 11.3104 50.8455 11.1404 51.0154C10.9705 51.1854 10.875 51.4159 10.875 51.6562C10.875 51.8966 10.9705 52.1271 11.1404 52.2971C11.3104 52.467 11.5409 52.5625 11.7812 52.5625H46.2188C46.4591 52.5625 46.6896 52.467 46.8596 52.2971C47.0295 52.1271 47.125 51.8966 47.125 51.6562C47.125 51.4159 47.0295 51.1854 46.8596 51.0154C46.6896 50.8455 46.4591 50.75 46.2188 50.75H40.7812V48.9375C40.7812 48.6971 40.6858 48.4666 40.5158 48.2967C40.3459 48.1267 40.1154 48.0312 39.875 48.0312H36.9036L35.6949 44.4062H53.9219C54.7628 44.4053 55.5691 44.0708 56.1637 43.4762C56.7583 42.8816 57.0928 42.0753 57.0938 41.2344V8.60938C57.0928 7.76843 56.7583 6.96219 56.1637 6.36755C55.5691 5.77291 54.7628 5.43843 53.9219 5.4375ZM38.9688 49.8438V50.75H19.0312V49.8438H38.9688ZM23.0074 48.0312L24.2161 44.4062H33.7839L34.9926 48.0312H23.0074ZM55.2812 41.2344C55.2809 41.5948 55.1376 41.9404 54.8828 42.1953C54.6279 42.4501 54.2823 42.5934 53.9219 42.5938H4.07812C3.71769 42.5934 3.3721 42.4501 3.11723 42.1953C2.86237 41.9404 2.71905 41.5948 2.71875 41.2344V38.9688H55.2812V41.2344ZM55.2812 37.1562H2.71875V8.60938C2.71905 8.24894 2.86237 7.90335 3.11723 7.64848C3.3721 7.39362 3.71769 7.2503 4.07812 7.25H53.9219C54.2823 7.2503 54.6279 7.39362 54.8828 7.64848C55.1376 7.90335 55.2809 8.24894 55.2812 8.60938V37.1562Z" fill="#00CAD6"/>
<path d="M13.5938 39.875H5.4375C5.19715 39.875 4.96664 39.9705 4.79668 40.1404C4.62673 40.3104 4.53125 40.5409 4.53125 40.7812C4.53125 41.0216 4.62673 41.2521 4.79668 41.4221C4.96664 41.592 5.19715 41.6875 5.4375 41.6875H13.5938C13.8341 41.6875 14.0646 41.592 14.2346 41.4221C14.4045 41.2521 14.5 41.0216 14.5 40.7812C14.5 40.5409 14.4045 40.3104 14.2346 40.1404C14.0646 39.9705 13.8341 39.875 13.5938 39.875Z" fill="#00CAD6"/>
<path d="M17.2188 39.875H16.3125C16.0721 39.875 15.8416 39.9705 15.6717 40.1404C15.5017 40.3104 15.4062 40.5409 15.4062 40.7812C15.4062 41.0216 15.5017 41.2521 15.6717 41.4221C15.8416 41.592 16.0721 41.6875 16.3125 41.6875H17.2188C17.4591 41.6875 17.6896 41.592 17.8596 41.4221C18.0295 41.2521 18.125 41.0216 18.125 40.7812C18.125 40.5409 18.0295 40.3104 17.8596 40.1404C17.6896 39.9705 17.4591 39.875 17.2188 39.875Z" fill="#00CAD6"/>
<path d="M27.1875 30.8125H30.8125C31.0529 30.8125 31.2834 30.717 31.4533 30.5471C31.6233 30.3771 31.7188 30.1466 31.7188 29.9062V19.0312C31.7188 18.7909 31.6233 18.5604 31.4533 18.3904C31.2834 18.2205 31.0529 18.125 30.8125 18.125H27.1875C26.9471 18.125 26.7166 18.2205 26.5467 18.3904C26.3767 18.5604 26.2812 18.7909 26.2812 19.0312V29.9062C26.2812 30.1466 26.3767 30.3771 26.5467 30.5471C26.7166 30.717 26.9471 30.8125 27.1875 30.8125ZM28.0938 19.9375H29.9062V29H28.0938V19.9375Z" fill="#00CAD6"/>
<path d="M19.9375 30.8125H23.5625C23.8029 30.8125 24.0334 30.717 24.2033 30.5471C24.3733 30.3771 24.4688 30.1466 24.4688 29.9062V22.6562C24.4688 22.4159 24.3733 22.1854 24.2033 22.0154C24.0334 21.8455 23.8029 21.75 23.5625 21.75H19.9375C19.6971 21.75 19.4666 21.8455 19.2967 22.0154C19.1267 22.1854 19.0312 22.4159 19.0312 22.6562V29.9062C19.0312 30.1466 19.1267 30.3771 19.2967 30.5471C19.4666 30.717 19.6971 30.8125 19.9375 30.8125ZM20.8438 23.5625H22.6562V29H20.8438V23.5625Z" fill="#00CAD6"/>
<path d="M34.4375 30.8125H38.0625C38.3029 30.8125 38.5334 30.717 38.7033 30.5471C38.8733 30.3771 38.9688 30.1466 38.9688 29.9062V15.4062C38.9688 15.1659 38.8733 14.9354 38.7033 14.7654C38.5334 14.5955 38.3029 14.5 38.0625 14.5H34.4375C34.1971 14.5 33.9666 14.5955 33.7967 14.7654C33.6267 14.9354 33.5312 15.1659 33.5312 15.4062V29.9062C33.5312 30.1466 33.6267 30.3771 33.7967 30.5471C33.9666 30.717 34.1971 30.8125 34.4375 30.8125ZM35.3438 16.3125H37.1562V29H35.3438V16.3125Z" fill="#00CAD6"/>
<path d="M17.2188 33.5312H40.7812C41.0216 33.5312 41.2521 33.4358 41.4221 33.2658C41.592 33.0959 41.6875 32.8654 41.6875 32.625C41.6875 32.3846 41.592 32.1541 41.4221 31.9842C41.2521 31.8142 41.0216 31.7188 40.7812 31.7188H18.125V12.6875C18.125 12.4471 18.0295 12.2166 17.8596 12.0467C17.6896 11.8767 17.4591 11.7812 17.2188 11.7812C16.9784 11.7812 16.7479 11.8767 16.5779 12.0467C16.408 12.2166 16.3125 12.4471 16.3125 12.6875V32.625C16.3125 32.8654 16.408 33.0959 16.5779 33.2658C16.7479 33.4358 16.9784 33.5312 17.2188 33.5312Z" fill="#00CAD6"/>
</svg>
