<svg width="58" height="58" viewBox="0 0 58 58" fill="none" xmlns="http://www.w3.org/2000/svg">
<g clip-path="url(#clip0_1652_464)">
<path d="M42.4186 20.6174C41.9617 20.5108 41.505 20.7948 41.3983 21.2517C41.2917 21.7087 41.5756 22.1655 42.0326 22.2721C43.5184 22.6189 46.1679 24.4965 46.7133 25.0421C46.8792 25.2079 47.0967 25.2909 47.3141 25.2909C47.5315 25.2909 47.749 25.208 47.9149 25.0421C48.2467 24.7103 48.2467 24.1723 47.9149 23.8407C47.2644 23.19 44.3641 21.0713 42.4186 20.6174ZM15.5838 20.6174C13.6384 21.0713 10.7382 23.1899 10.0875 23.8405C9.75574 24.1723 9.75574 24.7103 10.0875 25.042C10.2535 25.2078 10.471 25.2908 10.6883 25.2908C10.9057 25.2908 11.1232 25.2079 11.2892 25.042C11.8346 24.4964 14.484 22.6187 15.9699 22.272C16.4268 22.1654 16.7108 21.7086 16.6042 21.2516C16.4975 20.7948 16.0407 20.5108 15.5838 20.6174ZM45.7219 50.0974C37.1413 56.6063 25.9552 57.2472 17.0265 52.9854C18.9283 51.607 20.1688 49.3692 20.1688 46.846C20.1688 42.988 16.7391 39.2952 14.5214 35.9158C13.5905 34.497 11.5523 34.5509 10.6566 35.9158C9.16704 38.1861 7.06554 40.6769 5.89902 43.2229C-0.915913 32.6812 0.619661 18.6546 10.0808 9.75961C10.4227 9.43824 10.4393 8.90052 10.1178 8.55865C9.79641 8.21678 9.25869 8.20024 8.91682 8.52161C-1.49453 18.3102 -2.86257 33.9045 5.20214 45.219C3.87409 50.9894 9.56283 56.0305 15.1928 53.9648C24.8695 59.1017 37.3074 58.613 46.7485 51.451C47.1224 51.1674 47.1955 50.6345 46.912 50.2607C46.6286 49.8871 46.0956 49.8138 45.7219 50.0974ZM12.5889 52.7266C9.34625 52.7266 6.70815 50.0885 6.70815 46.846C6.70815 43.6418 9.94876 40.092 12.077 36.848C12.3185 36.4798 12.8591 36.4799 13.1006 36.848C15.2296 40.0929 18.4694 43.642 18.4694 46.846C18.4696 50.0886 15.8315 52.7266 12.5889 52.7266ZM13.1213 28.205C12.813 27.8512 12.2763 27.8144 11.9226 28.1227C11.5688 28.431 11.5321 28.9677 11.8403 29.3214C12.8715 30.5045 14.3612 31.1831 15.9276 31.1831C17.494 31.1831 18.9838 30.5046 20.0148 29.3214C20.3232 28.9677 20.2861 28.4311 19.9325 28.1227C19.5785 27.8145 19.0421 27.8513 18.7338 28.2051C18.0255 29.0178 17.0027 29.484 15.9275 29.484C14.8525 29.4839 13.8296 29.0177 13.1213 28.205ZM29.0013 0.61084C22.8964 0.61084 17.0563 2.44648 12.1122 5.91954C11.7283 6.18925 11.6358 6.71916 11.9055 7.10305C12.1753 7.48706 12.7051 7.57972 13.089 7.30989C17.7452 4.03892 23.2477 2.30987 29.0013 2.30987C43.9281 2.30987 56.3009 14.1011 56.3009 28.9986C56.3009 35.9301 53.5955 42.4983 48.6831 47.4933C48.3541 47.8278 48.3586 48.3658 48.6931 48.6947C49.0273 49.0232 49.5649 49.0197 49.8945 48.6848C55.1215 43.37 58 36.3785 58 28.9986C58 13.2644 44.9796 0.61084 29.0013 0.61084ZM24.3397 36.2912C25.5307 34.5791 27.2298 33.5973 29.0013 33.5973C30.7729 33.5973 32.472 34.5791 33.6628 36.2912C33.9302 36.6753 34.4594 36.7721 34.8454 36.5035C35.2306 36.2356 35.3256 35.706 35.0577 35.3209C33.5445 33.1457 31.3369 31.8982 29.0012 31.8982C26.6654 31.8982 24.458 33.1457 22.9446 35.3209C22.6767 35.706 22.7718 36.2356 23.1569 36.5035C23.5425 36.7715 24.0718 36.6762 24.3397 36.2912ZM42.075 31.183C43.6413 31.183 45.131 30.5045 46.1623 29.3213C46.4705 28.9675 46.4338 28.431 46.08 28.1226C45.7262 27.8142 45.1897 27.8511 44.8813 28.2049C44.173 29.0176 43.1501 29.4837 42.075 29.4837C40.9999 29.4837 39.9769 29.0176 39.2685 28.2049C38.9601 27.8511 38.4235 27.8143 38.0699 28.1226C37.7161 28.4308 37.6794 28.9675 37.9875 29.3213C39.0189 30.5045 40.5086 31.183 42.075 31.183Z" fill="#00CAD6"/>
</g>
<defs>
<clipPath id="clip0_1652_464">
<rect width="58" height="58" fill="white"/>
</clipPath>
</defs>
</svg>
