<svg width="58" height="58" viewBox="0 0 58 58" fill="none" xmlns="http://www.w3.org/2000/svg">
<g clip-path="url(#clip0_1652_691)">
<path d="M13.7411 4.73926H4.61163C4.14214 4.73926 3.76172 5.11979 3.76172 5.58917C3.76172 6.05854 4.14214 6.43908 4.61163 6.43908H13.7411C14.2106 6.43908 14.591 6.05854 14.591 5.58917C14.591 5.11979 14.2106 4.73926 13.7411 4.73926Z" fill="#00CAD6"/>
<path d="M9.94838 8.0459H4.61163C4.14214 8.0459 3.76172 8.42643 3.76172 8.89581C3.76172 9.36519 4.14214 9.74572 4.61163 9.74572H9.9485C10.418 9.74572 10.7984 9.36519 10.7984 8.89581C10.7984 8.42643 10.4179 8.0459 9.94838 8.0459Z" fill="#00CAD6"/>
<path d="M57.782 6.53841C57.632 5.00642 56.4093 3.82188 54.8738 3.72193C50.8593 3.46355 46.7878 3.46355 42.7712 3.72193C41.2364 3.82188 40.0136 5.00642 39.8638 6.53841C39.5888 9.34708 39.5888 12.1951 39.8638 15.0036C39.9524 15.9097 40.4182 16.692 41.1 17.2025L39.3683 18.4999C36.7085 15.8761 33.0583 14.2538 29.0359 14.2538C25.1231 14.2538 21.5624 15.7886 18.9231 18.2872L14.3916 14.3382C14.6706 14.3228 14.95 14.3091 15.2286 14.2912C16.7632 14.1925 17.986 13.0084 18.1362 11.4756C18.4115 8.6667 18.4115 5.81826 18.1362 3.00936C17.986 1.47658 16.7632 0.292482 15.2286 0.193779C11.2131 -0.0645931 7.14127 -0.0645931 3.12584 0.193779C1.59125 0.292482 0.368398 1.47658 0.218247 3.00936C-0.057124 5.81826 -0.057124 8.6667 0.218247 11.4755C0.368284 13.0083 1.59113 14.1924 3.12584 14.2911C5.13356 14.4203 7.15544 14.4848 9.1772 14.4848C10.0935 14.4848 11.0097 14.4698 11.9248 14.4433L17.757 19.5257C15.6098 22.0845 14.3146 25.381 14.3146 28.9749C14.3146 32.7105 15.714 36.125 18.0152 38.7235L14.4987 41.9701C10.8148 41.8233 7.10456 41.8678 3.43601 42.1039C1.75874 42.2113 0.422678 43.5054 0.259156 45.1808C-0.0507779 48.34 -0.0507779 51.5444 0.259043 54.7045C0.422678 56.3786 1.7584 57.6727 3.43578 57.7817C5.69745 57.9274 7.97464 58.0001 10.2519 58.0001C12.5292 58.0001 14.8067 57.9273 17.068 57.7817C18.744 57.6728 20.0802 56.3789 20.2454 54.7039C20.3977 53.1343 20.476 51.5509 20.4783 49.9973C20.479 49.5279 20.099 49.1468 19.6296 49.1461C19.6292 49.1461 19.6288 49.1461 19.6284 49.1461C19.1596 49.1461 18.7791 49.5258 18.7785 49.9948C18.7763 51.4946 18.7006 53.0237 18.5537 54.5384C18.4708 55.3801 17.7996 56.0307 16.9584 56.0854C12.5084 56.3718 7.9956 56.3718 3.54547 56.0854C2.70372 56.0307 2.03309 55.3805 1.95082 54.5389C1.65165 51.4887 1.65165 48.396 1.95093 45.3464C2.0332 44.5045 2.7035 43.8542 3.54491 43.8002C7.99583 43.5138 12.5088 43.5137 16.9586 43.8002C17.7999 43.8541 18.4708 44.5046 18.5536 45.3455C18.5969 45.7936 18.6335 46.2355 18.6626 46.659C18.6947 47.1274 19.1003 47.4815 19.5688 47.4488C20.037 47.4166 20.3906 47.011 20.3585 46.5427C20.3284 46.1034 20.2903 45.6455 20.2454 45.1803C20.0803 43.505 18.7438 42.2112 17.0675 42.1037C17.0026 42.0995 16.9374 42.096 16.8725 42.092L19.214 39.9302C21.8214 42.2702 25.2651 43.696 29.036 43.696C32.4902 43.696 35.67 42.4996 38.1839 40.5L41.1317 43.5314C40.634 43.9381 40.298 44.5353 40.2309 45.2201C40.0307 47.2608 40.0307 49.3302 40.2309 51.3709C40.3505 52.5923 41.325 53.5359 42.5482 53.6146C44.0008 53.7081 45.4638 53.7548 46.9268 53.7548C48.3897 53.7548 49.8526 53.7081 51.3054 53.6146C52.5286 53.5359 53.5032 52.5923 53.6227 51.3709C53.8228 49.3301 53.8228 47.2607 53.6227 45.2201C53.5031 43.9986 52.5285 43.055 51.3054 42.9764C48.5309 42.7978 45.7194 42.7919 42.9416 42.9543L39.4529 39.3668C42.1112 36.7022 43.7572 33.0272 43.7572 28.9748C43.7572 25.4927 42.5411 22.2899 40.5126 19.7665L43.0871 17.8377C44.9847 17.9536 46.9144 18.0143 48.8304 18.0143C49.2999 18.0143 49.6803 17.6338 49.6803 17.1644C49.6803 16.6951 49.2999 16.3145 48.8304 16.3145C46.8449 16.3145 44.8434 16.2503 42.8818 16.1236C42.1818 16.078 41.624 15.5374 41.5556 14.8377C41.2914 12.1391 41.2914 9.4025 41.5557 6.70375C41.6242 6.00433 42.1818 5.46356 42.8811 5.41801C46.8245 5.16428 50.8226 5.16428 54.7641 5.41801C55.4641 5.46356 56.0219 6.00433 56.0903 6.70386C56.3546 9.4025 56.3546 12.1392 56.0902 14.8378C56.0217 15.5374 55.4641 16.078 54.7649 16.1236C53.8856 16.18 53.0196 16.2234 52.1909 16.2527C51.7218 16.2692 51.3549 16.6629 51.3716 17.132C51.3881 17.6012 51.7862 17.9679 52.251 17.9513C53.0959 17.9215 53.9783 17.8773 54.8746 17.8198C56.4093 17.7199 57.6321 16.5354 57.782 15.0033C58.057 12.1951 58.057 9.34686 57.782 6.53841ZM3.23497 12.5948C2.53567 12.5498 1.97835 12.0093 1.90991 11.3097C1.64553 8.61083 1.64553 5.8739 1.90991 3.17492C1.97835 2.47539 2.53567 1.93496 3.23497 1.88997C5.20654 1.76317 7.19181 1.69982 9.1772 1.69982C11.1627 1.69982 13.148 1.76328 15.1195 1.89009C15.8187 1.93507 16.3761 2.4755 16.4446 3.17515C16.709 5.87401 16.709 8.61095 16.4446 11.3098C16.3761 12.0095 15.8187 12.5499 15.1195 12.5949C11.1766 12.8485 7.1781 12.8485 3.23497 12.5948ZM18.2119 36.2056L18.9685 35.7687C19.375 35.5341 19.5143 35.0142 19.2796 34.6078C19.0449 34.2012 18.5248 34.0621 18.1186 34.2967L17.3598 34.7348C16.6181 33.2374 16.1563 31.578 16.0429 29.825H18.0984C18.5679 29.825 18.9483 29.4445 18.9483 28.9751C18.9483 28.5058 18.5679 28.1252 18.0984 28.1252H16.0429C16.1564 26.3723 16.6181 24.7128 17.3599 23.2153L18.1187 23.6534C18.2525 23.7307 18.3987 23.7674 18.5429 23.7674C18.8366 23.7674 19.1223 23.615 19.2797 23.3424C19.5144 22.9359 19.3751 22.4161 18.9686 22.1814L18.212 21.7445C19.1633 20.3252 20.3859 19.1025 21.8053 18.1511L22.2421 18.9079C22.3996 19.1805 22.6852 19.333 22.9789 19.333C23.1231 19.333 23.2693 19.2961 23.4031 19.219C23.8096 18.9843 23.9489 18.4645 23.7142 18.058L23.2761 17.2992C24.7735 16.5575 26.433 16.0957 28.1859 15.9822V18.0378C28.1859 18.5072 28.5664 18.8877 29.0359 18.8877C29.5053 18.8877 29.8858 18.5072 29.8858 18.0378V15.9822C31.6387 16.0957 33.2981 16.5574 34.7955 17.2991L34.3574 18.0579C34.1227 18.4643 34.262 18.9842 34.6685 19.2188C34.8023 19.2961 34.9485 19.3328 35.0927 19.3328C35.3864 19.3328 35.672 19.1804 35.8295 18.9078L36.2664 18.151C37.6858 19.1023 38.9085 20.3251 39.8599 21.7444L39.1031 22.1813C38.6966 22.416 38.5573 22.9358 38.792 23.3423C38.9494 23.6149 39.2351 23.7673 39.5288 23.7673C39.673 23.7673 39.8192 23.7306 39.953 23.6533L40.7118 23.2152C41.4535 24.7127 41.9153 26.3721 42.0288 28.1251H39.9732C39.5037 28.1251 39.1233 28.5056 39.1233 28.975C39.1233 29.4444 39.5037 29.8249 39.9732 29.8249H42.0288C41.9153 31.5779 41.4536 33.2373 40.7118 34.7348L39.9529 34.2967C39.5462 34.0619 39.0265 34.2013 38.7919 34.6078C38.5572 35.0142 38.6965 35.5341 39.103 35.7687L39.8597 36.2056C38.9084 37.6251 37.6858 38.8477 36.2663 39.799L35.8294 39.0423C35.5947 38.6358 35.0746 38.4966 34.6684 38.7312C34.2619 38.9659 34.1226 39.4857 34.3573 39.8922L34.7954 40.651C33.298 41.3927 31.6386 41.8544 29.8857 41.9679V39.9122C29.8857 39.4428 29.5052 39.0623 29.0357 39.0623C28.5663 39.0623 28.1858 39.4428 28.1858 39.9122V41.9679C26.4329 41.8543 24.7734 41.3925 23.276 40.6508L23.7141 39.8921C23.9487 39.4856 23.8095 38.9658 23.403 38.7311C22.9966 38.4963 22.4767 38.6355 22.242 39.0421L21.805 39.7989C20.3858 38.8476 19.1631 37.6249 18.2119 36.2056ZM46.9267 44.5362C48.3532 44.5362 49.7797 44.5817 51.1962 44.6728C51.584 44.6978 51.8929 44.9976 51.931 45.386C52.1202 47.3167 52.1202 49.2746 51.931 51.2055C51.8929 51.5937 51.584 51.8936 51.1962 51.9185C48.3631 52.1006 45.4902 52.1006 42.6572 51.9185C42.2694 51.8936 41.9605 51.5936 41.9224 51.2054C41.7332 49.2746 41.7332 47.3168 41.9224 45.3859C41.9605 44.9976 42.2694 44.6978 42.6572 44.6728C44.0737 44.5817 45.5001 44.5362 46.9267 44.5362Z" fill="#00CAD6"/>
<path d="M54.2375 9.11749C54.2375 8.64811 53.8571 8.26758 53.3876 8.26758H44.2581C43.7886 8.26758 43.4082 8.64811 43.4082 9.11749C43.4082 9.58687 43.7886 9.9674 44.2581 9.9674H53.3876C53.857 9.9674 54.2375 9.58687 54.2375 9.11749Z" fill="#00CAD6"/>
<path d="M44.2581 11.5742C43.7886 11.5742 43.4082 11.9548 43.4082 12.4241C43.4082 12.8935 43.7886 13.274 44.2581 13.274H49.5951C50.0646 13.274 50.445 12.8935 50.445 12.4241C50.445 11.9548 50.0646 11.5742 49.5951 11.5742H44.2581Z" fill="#00CAD6"/>
<path d="M44.2581 47.4923H49.5951C50.0646 47.4923 50.445 47.1118 50.445 46.6424C50.445 46.173 50.0646 45.7925 49.5951 45.7925H44.2581C43.7886 45.7925 43.4082 46.173 43.4082 46.6424C43.4082 47.1118 43.7887 47.4923 44.2581 47.4923Z" fill="#00CAD6"/>
<path d="M44.2581 50.7989H47.3778C47.8473 50.7989 48.2278 50.4184 48.2278 49.949C48.2278 49.4797 47.8473 49.0991 47.3778 49.0991H44.2581C43.7886 49.0991 43.4082 49.4797 43.4082 49.949C43.4082 50.4184 43.7887 50.7989 44.2581 50.7989Z" fill="#00CAD6"/>
<path d="M15.6674 49.9427C15.6674 49.4733 15.287 49.0928 14.8175 49.0928H5.6878C5.21831 49.0928 4.83789 49.4733 4.83789 49.9427C4.83789 50.4121 5.21831 50.7926 5.6878 50.7926H14.8174C15.2869 50.7926 15.6674 50.4121 15.6674 49.9427Z" fill="#00CAD6"/>
<path d="M14.8175 45.6719H5.6878C5.21831 45.6719 4.83789 46.0524 4.83789 46.5218C4.83789 46.9912 5.21831 47.3717 5.6878 47.3717H14.8174C15.2869 47.3717 15.6673 46.9912 15.6673 46.5218C15.6673 46.0524 15.2869 45.6719 14.8175 45.6719Z" fill="#00CAD6"/>
<path d="M5.6878 52.5132C5.21831 52.5132 4.83789 52.8937 4.83789 53.3631C4.83789 53.8325 5.21831 54.213 5.6878 54.213H11.0248C11.4943 54.213 11.8747 53.8325 11.8747 53.3631C11.8747 52.8937 11.4943 52.5132 11.0248 52.5132H5.6878Z" fill="#00CAD6"/>
<rect x="28.1504" y="22.4824" width="1.70033" height="7.36808" rx="0.850163" fill="#00CAD6"/>
<rect x="22.6699" y="29.8501" width="1.70032" height="7.17915" rx="0.850162" transform="rotate(-90 22.6699 29.8501)" fill="#00CAD6"/>
</g>
<defs>
<clipPath id="clip0_1652_691">
<rect width="58" height="58" fill="white"/>
</clipPath>
</defs>
</svg>
