<svg width="9" height="10" viewBox="0 0 9 10" fill="none" xmlns="http://www.w3.org/2000/svg">
<path d="M5.14453 8.96094C5.33984 8.76562 5.32031 8.47266 5.14453 8.27734L2.78125 6.03125H8.40625C8.66016 6.03125 8.875 5.83594 8.875 5.5625V4.9375C8.875 4.68359 8.66016 4.46875 8.40625 4.46875H2.78125L5.14453 2.24219C5.32031 2.04688 5.33984 1.75391 5.14453 1.55859L4.71484 1.12891C4.53906 0.953125 4.22656 0.953125 4.05078 1.12891L0.261719 4.9375C0.0664062 5.11328 0.0664062 5.40625 0.261719 5.58203L4.05078 9.39062C4.22656 9.56641 4.51953 9.56641 4.71484 9.39062L5.14453 8.96094Z" fill="white"/>
</svg>
